<svg width="42" height="37" viewBox="0 0 42 37" fill="none" xmlns="http://www.w3.org/2000/svg">
<path d="M42 0.364861L40.9401 8.0704C38.8202 7.89016 37.0978 8.25065 35.7729 9.15189C34.448 10.0081 33.5205 11.2698 32.9905 12.9371C32.5047 14.5593 32.4164 16.4519 32.7256 18.6148H42V37H23.9811V18.6148C23.9811 12.126 25.4606 7.21424 28.4196 3.87967C31.3785 0.500048 35.9054 -0.671557 42 0.364861ZM18.0189 0.364861L16.959 8.0704C14.8391 7.89016 13.1167 8.25065 11.7918 9.15189C10.4669 10.0081 9.53943 11.2698 9.00946 12.9371C8.52366 14.5593 8.43533 16.4519 8.74448 18.6148H18.0189V37H0V18.6148C0 12.126 1.4795 7.21424 4.43849 3.87967C7.39748 0.500048 11.9243 -0.671557 18.0189 0.364861Z" fill="#6A15CC"/>
</svg>
