<svg width="27" height="26" viewBox="0 0 27 26" fill="none" xmlns="http://www.w3.org/2000/svg">
<path fill-rule="evenodd" clip-rule="evenodd" d="M8.71485 6.53068C8.71485 5.38835 7.73278 4.45838 6.52358 4.45838C5.31567 4.45838 4.33231 5.38835 4.33231 6.53068C4.33231 7.67301 5.31567 8.60298 6.52358 8.60298C7.73278 8.60298 8.71485 7.67301 8.71485 6.53068ZM10.6506 6.53065C10.6506 8.68228 8.80001 10.4336 6.52357 10.4336C4.24841 10.4336 2.39655 8.68228 2.39655 6.53065C2.39655 4.37901 4.24841 2.62769 6.52357 2.62769C8.80001 2.62769 10.6506 4.37901 10.6506 6.53065ZM24.3354 6.53102C24.3354 6.02575 23.9018 5.61569 23.3676 5.61569H15.431C14.8967 5.61569 14.4631 6.02575 14.4631 6.53102C14.4631 7.03628 14.8967 7.44634 15.431 7.44634H23.3676C23.9018 7.44634 24.3354 7.03628 24.3354 6.53102ZM18.0168 18.6926C18.0168 19.8349 18.9989 20.7649 20.208 20.7649C21.4172 20.7649 22.3993 19.8349 22.3993 18.6926C22.3993 17.5491 21.4172 16.6203 20.208 16.6203C18.9989 16.6203 18.0168 17.5491 18.0168 18.6926ZM16.081 18.6927C16.081 16.5398 17.9316 14.7897 20.208 14.7897C22.4845 14.7897 24.3351 16.5398 24.3351 18.6927C24.3351 20.8443 22.4845 22.5957 20.208 22.5957C17.9316 22.5957 16.081 20.8443 16.081 18.6927ZM3.36533 17.7771H11.3006C11.8349 17.7771 12.2685 18.1871 12.2685 18.6924C12.2685 19.1977 11.8349 19.6077 11.3006 19.6077H3.36533C2.83106 19.6077 2.39745 19.1977 2.39745 18.6924C2.39745 18.1871 2.83106 17.7771 3.36533 17.7771Z" fill="#0065FC"/>
</svg>
