<svg width="16" height="16" viewBox="0 0 16 16" fill="none" xmlns="http://www.w3.org/2000/svg">
<g clip-path="url(#clip0_541_2787)">
<path d="M13.5818 0.875H5.07837C4.97891 0.875 4.88353 0.914509 4.8132 0.984835C4.74288 1.05516 4.70337 1.15054 4.70337 1.25C4.70337 1.34946 4.74288 1.44484 4.8132 1.51517C4.88353 1.58549 4.97891 1.625 5.07837 1.625H13.5818C13.7923 1.62521 13.9942 1.70893 14.1431 1.8578C14.292 2.00667 14.3757 2.20852 14.376 2.41907V10.9227C14.376 11.0222 14.4155 11.1176 14.4858 11.1879C14.5561 11.2582 14.6515 11.2977 14.751 11.2977C14.8504 11.2977 14.9458 11.2582 15.0161 11.1879C15.0865 11.1176 15.126 11.0222 15.126 10.9227V2.41907C15.1255 2.00967 14.9627 1.61718 14.6732 1.32771C14.3837 1.03823 13.9912 0.875424 13.5818 0.875Z" fill="#585858"/>
<path d="M13.8461 12.1467C13.7747 12.0786 13.6797 12.0405 13.581 12.0405C13.4822 12.0405 13.3873 12.0786 13.3158 12.1467C13.281 12.1815 13.2534 12.2229 13.2345 12.2684C13.2157 12.3139 13.206 12.3626 13.206 12.4119C13.206 12.4611 13.2157 12.5099 13.2345 12.5554C13.2534 12.6009 13.281 12.6422 13.3158 12.677L13.8449 13.2059H3.58829C3.37778 13.2057 3.17596 13.1219 3.02712 12.9731C2.87828 12.8242 2.79457 12.6224 2.79434 12.4119V2.15527L3.32315 2.6842C3.39459 2.75237 3.48954 2.7904 3.58829 2.7904C3.68703 2.7904 3.78198 2.75237 3.85342 2.6842C3.88825 2.64939 3.91588 2.60806 3.93473 2.56257C3.95358 2.51707 3.96329 2.46831 3.96329 2.41907C3.96329 2.36982 3.95358 2.32106 3.93473 2.27557C3.91588 2.23007 3.88825 2.18874 3.85342 2.15393L2.68448 0.984862C2.61304 0.916694 2.51809 0.878662 2.41934 0.878662C2.3206 0.878662 2.22564 0.916694 2.1542 0.984862L0.985016 2.15393C0.914782 2.22429 0.875336 2.31965 0.875336 2.41907C0.875336 2.51848 0.914782 2.61384 0.985016 2.6842C1.05646 2.75237 1.15141 2.7904 1.25015 2.7904C1.3489 2.7904 1.44385 2.75237 1.51529 2.6842L2.04434 2.15527V12.4119C2.04479 12.8212 2.20759 13.2137 2.49704 13.5031C2.78648 13.7926 3.17893 13.9555 3.58829 13.9559H13.8449L13.3158 14.4849C13.281 14.5197 13.2534 14.561 13.2345 14.6065C13.2157 14.652 13.206 14.7008 13.206 14.75C13.206 14.7992 13.2157 14.848 13.2345 14.8935C13.2534 14.939 13.281 14.9803 13.3158 15.0151C13.3506 15.05 13.392 15.0776 13.4375 15.0964C13.483 15.1153 13.5317 15.125 13.581 15.125C13.6302 15.125 13.679 15.1153 13.7245 15.0964C13.7699 15.0776 13.8113 15.05 13.8461 15.0151L15.0153 13.8461C15.0501 13.8113 15.0777 13.7699 15.0966 13.7244C15.1154 13.6789 15.1252 13.6302 15.1252 13.5809C15.1252 13.5317 15.1154 13.4829 15.0966 13.4374C15.0777 13.3919 15.0501 13.3506 15.0153 13.3158L13.8461 12.1467Z" fill="#585858"/>
<path d="M9.6892 10.5402C9.78862 10.5401 9.88394 10.5006 9.95424 10.4303C10.0245 10.36 10.0641 10.2647 10.0642 10.1652V6.54879C10.0649 6.25903 9.97767 5.97588 9.814 5.73677C9.65034 5.49766 9.41797 5.31385 9.1476 5.20964C8.87724 5.10542 8.58161 5.08571 8.2998 5.15311C8.018 5.22051 7.76328 5.37185 7.56932 5.58712C7.43534 5.43881 7.27187 5.32011 7.08937 5.23861C6.90688 5.15712 6.70937 5.11462 6.50951 5.11385C6.26934 5.11378 6.03322 5.17567 5.82396 5.29354C5.81928 5.19578 5.77656 5.10373 5.70492 5.03704C5.63329 4.97035 5.53842 4.93432 5.44058 4.93663C5.34273 4.93894 5.24967 4.97941 5.18126 5.04941C5.11286 5.1194 5.07453 5.21337 5.07446 5.31124V10.1652C5.07446 10.2647 5.11397 10.3601 5.1843 10.4304C5.25462 10.5007 5.35001 10.5402 5.44946 10.5402C5.54892 10.5402 5.6443 10.5007 5.71463 10.4304C5.78495 10.3601 5.82446 10.2647 5.82446 10.1652V6.54879C5.82481 6.36736 5.89713 6.19348 6.02554 6.06531C6.15395 5.93714 6.32797 5.86516 6.5094 5.86516C6.69083 5.86516 6.86485 5.93714 6.99326 6.06531C7.12167 6.19348 7.19399 6.36736 7.19434 6.54879V10.1652C7.19434 10.2647 7.23384 10.3601 7.30417 10.4304C7.3745 10.5007 7.46988 10.5402 7.56934 10.5402C7.66879 10.5402 7.76417 10.5007 7.8345 10.4304C7.90483 10.3601 7.94434 10.2647 7.94434 10.1652V6.54879C7.94434 6.36713 8.0165 6.19291 8.14495 6.06446C8.2734 5.93601 8.44762 5.86385 8.62927 5.86385C8.81093 5.86385 8.98515 5.93601 9.1136 6.06446C9.24205 6.19291 9.31421 6.36713 9.31421 6.54879V10.1652C9.31432 10.2647 9.35386 10.36 9.42416 10.4303C9.49446 10.5006 9.58978 10.5401 9.6892 10.5402Z" fill="#585858"/>
<path d="M12.6125 5.3302L12.6721 5.24902C12.7956 5.06727 12.8617 4.85265 12.8618 4.63293C12.8618 4.33894 12.745 4.05698 12.5371 3.84909C12.3293 3.6412 12.0473 3.52441 11.7533 3.52441C11.4593 3.52441 11.1773 3.6412 10.9695 3.84909C10.7616 4.05698 10.6448 4.33894 10.6448 4.63293C10.6448 4.73239 10.6843 4.82777 10.7546 4.8981C10.8249 4.96843 10.9203 5.00793 11.0198 5.00793C11.1192 5.00793 11.2146 4.96843 11.2849 4.8981C11.3553 4.82777 11.3948 4.73239 11.3948 4.63293C11.3951 4.57847 11.4078 4.52479 11.432 4.47597C11.4561 4.42715 11.4911 4.38448 11.5342 4.35119C11.5773 4.31791 11.6274 4.29488 11.6808 4.28387C11.7341 4.27285 11.7893 4.27414 11.8421 4.28762C11.8948 4.30111 11.9438 4.32644 11.9854 4.3617C12.0269 4.39695 12.0598 4.4412 12.0817 4.49109C12.1035 4.54098 12.1137 4.5952 12.1115 4.64962C12.1093 4.70404 12.0947 4.75724 12.0688 4.80518L10.8999 6.06007C10.8369 6.12725 10.795 6.21137 10.7792 6.3021C10.7634 6.39282 10.7745 6.48618 10.811 6.57068C10.8476 6.65519 10.9081 6.72716 10.9851 6.77774C11.062 6.82832 11.1521 6.8553 11.2442 6.85535H12.4636C12.5631 6.85535 12.6585 6.81585 12.7288 6.74552C12.7991 6.67519 12.8386 6.57981 12.8386 6.48035C12.8386 6.3809 12.7991 6.28552 12.7288 6.21519C12.6585 6.14486 12.5631 6.10535 12.4636 6.10535H11.887L12.5852 5.36292C12.5947 5.35254 12.604 5.34155 12.6125 5.3302Z" fill="#585858"/>
</g>
<defs>
<clipPath id="clip0_541_2787">
<rect width="16" height="16" fill="white" transform="translate(0.000244141)"/>
</clipPath>
</defs>
</svg>
