<svg width="16" height="16" viewBox="0 0 16 16" fill="none" xmlns="http://www.w3.org/2000/svg">
<path d="M14.094 7.0625C14.094 5.77026 13.0425 4.71875 11.7502 4.71875H9.87524C8.58301 4.71875 7.53149 5.77026 7.53149 7.0625C7.53149 7.32153 7.74121 7.53125 8.00024 7.53125H13.6252C13.8843 7.53125 14.094 7.32153 14.094 7.0625Z" fill="#585858"/>
<path d="M5.18774 0.9375H8.93774C9.71313 0.9375 10.344 1.56836 10.344 2.34375V2.9303C9.94897 3.07263 9.63428 3.38452 9.4928 3.78125H12.1327C11.9912 3.38452 11.6765 3.07263 11.2815 2.9303V2.34375C11.2815 1.05151 10.23 0 8.93774 0H5.18774C3.89551 0 2.84399 1.05151 2.84399 2.34375V5.65625H2.37524C2.11621 5.65625 1.90649 5.86597 1.90649 6.125V15.5312C1.90649 15.7903 2.11621 16 2.37524 16H4.25024C4.50928 16 4.71899 15.7903 4.71899 15.5312V11.2812H5.65649V11.75C5.65649 12.009 5.86621 12.2188 6.12524 12.2188C6.38428 12.2188 6.59399 12.009 6.59399 11.75V9.875C6.59399 9.61597 6.38428 9.40625 6.12524 9.40625C5.86621 9.40625 5.65649 9.61597 5.65649 9.875V10.3438H4.71899V6.125C4.71899 5.86597 4.50928 5.65625 4.25024 5.65625H3.78149V2.34375C3.78149 1.56836 4.41235 0.9375 5.18774 0.9375Z" fill="#585858"/>
<path d="M8.93774 10.3438C9.19678 10.3438 9.40649 10.134 9.40649 9.875V8.9375C9.40649 8.67847 9.19678 8.46875 8.93774 8.46875C8.67871 8.46875 8.46899 8.67847 8.46899 8.9375V9.875C8.46899 10.134 8.67871 10.3438 8.93774 10.3438Z" fill="#585858"/>
<path d="M10.8127 10.3438C11.0718 10.3438 11.2815 10.134 11.2815 9.875V8.9375C11.2815 8.67847 11.0718 8.46875 10.8127 8.46875C10.5537 8.46875 10.344 8.67847 10.344 8.9375V9.875C10.344 10.134 10.5537 10.3438 10.8127 10.3438Z" fill="#585858"/>
<path d="M13.1565 8.9375C13.1565 8.67847 12.9468 8.46875 12.6877 8.46875C12.4287 8.46875 12.219 8.67847 12.219 8.9375V9.875C12.219 10.134 12.4287 10.3438 12.6877 10.3438C12.9468 10.3438 13.1565 10.134 13.1565 9.875V8.9375Z" fill="#585858"/>
<path d="M8.46899 12.6875C8.46899 12.9465 8.67871 13.1562 8.93774 13.1562C9.19678 13.1562 9.40649 12.9465 9.40649 12.6875V11.75C9.40649 11.491 9.19678 11.2812 8.93774 11.2812C8.67871 11.2812 8.46899 11.491 8.46899 11.75V12.6875Z" fill="#585858"/>
<path d="M10.344 12.6875C10.344 12.9465 10.5537 13.1562 10.8127 13.1562C11.0718 13.1562 11.2815 12.9465 11.2815 12.6875V11.75C11.2815 11.491 11.0718 11.2812 10.8127 11.2812C10.5537 11.2812 10.344 11.491 10.344 11.75V12.6875Z" fill="#585858"/>
<path d="M12.6877 11.2812C12.4287 11.2812 12.219 11.491 12.219 11.75V12.6875C12.219 12.9465 12.4287 13.1562 12.6877 13.1562C12.9468 13.1562 13.1565 12.9465 13.1565 12.6875V11.75C13.1565 11.491 12.9468 11.2812 12.6877 11.2812Z" fill="#585858"/>
<path d="M11.7502 16C12.0093 16 12.219 15.7903 12.219 15.5312V14.5625C12.219 14.3035 12.0093 14.0938 11.7502 14.0938C11.4912 14.0938 11.2815 14.3035 11.2815 14.5625V15.5312C11.2815 15.7903 11.4912 16 11.7502 16Z" fill="#585858"/>
<path d="M9.87524 16C10.1343 16 10.344 15.7903 10.344 15.5312V14.5625C10.344 14.3035 10.1343 14.0938 9.87524 14.0938C9.61621 14.0938 9.40649 14.3035 9.40649 14.5625V15.5312C9.40649 15.7903 9.61621 16 9.87524 16Z" fill="#585858"/>
</svg>
