<svg width="30" height="30" viewBox="0 0 30 30" fill="none" xmlns="http://www.w3.org/2000/svg">
<path fill-rule="evenodd" clip-rule="evenodd" d="M25.3661 2.86611C25.8542 2.37796 26.6458 2.37796 27.1339 2.86611C27.622 3.35428 27.622 4.14573 27.1339 4.63389L21.991 9.77681C22.32 10.621 22.5006 11.5394 22.5006 12.5V14.375V16.9995L24.5225 19.7796C25.0755 20.54 25.1551 21.5465 24.7284 22.3845C24.3018 23.2224 23.441 23.75 22.5006 23.75H18.7506C18.7506 25.8211 17.0717 27.5 15.0006 27.5C12.9296 27.5 11.2506 25.8211 11.2506 23.75H8.01776L4.63389 27.1339C4.14572 27.622 3.35427 27.622 2.86611 27.1339C2.37796 26.6458 2.37796 25.8543 2.86611 25.3661L25.3661 2.86611ZM10.5178 21.25H10.5919H13.7506H16.2506H16.2521H19.4094H22.5006L20.6825 18.75L20.4787 18.47C20.168 18.0426 20.0006 17.5279 20.0006 16.9995V14.375V12.5C20.0006 12.2672 19.9847 12.0381 19.954 11.8138L10.5178 21.25ZM15.0006 2.5C13.62 2.5 12.5006 3.61929 12.5006 5V5.42676C9.58766 6.45635 7.50065 9.23445 7.50065 12.5V14.375V16.9995L10.0006 14.7313V14.375V12.5C10.0006 9.73858 12.2392 7.5 15.0006 7.5C15.6617 7.5 16.2929 7.6283 16.8705 7.86138L18.7366 5.99528C18.3455 5.77014 17.9321 5.57928 17.5006 5.42676V5C17.5006 3.61929 16.3814 2.5 15.0006 2.5ZM15.0006 25C14.3102 25 13.7506 24.4404 13.7506 23.75H16.2506C16.2506 24.4404 15.691 25 15.0006 25Z" fill="#10D35E"/>
</svg>
