<svg width="16" height="16" viewBox="0 0 16 16" fill="none" xmlns="http://www.w3.org/2000/svg">
<g clip-path="url(#clip0_541_2759)">
<path d="M12.8356 8.60893C12.773 8.60893 12.7086 8.61792 12.6445 8.63558L12.2816 8.73547L11.8172 7.60433C11.6035 7.08376 10.9718 6.66016 10.4091 6.66016H5.5839C5.0212 6.66016 4.38952 7.08376 4.17584 7.60433L3.71226 8.73363L3.35616 8.63558C3.29197 8.61792 3.22765 8.60893 3.16498 8.60893C2.8217 8.60893 2.57251 8.87113 2.57251 9.23245V9.24578C2.57251 9.61864 2.84083 9.9296 3.19437 9.99679C3.00128 10.4838 2.84605 11.2794 2.84605 11.7916V14.141C2.84605 14.5627 3.18927 14.906 3.61103 14.906H4.05178C4.47354 14.906 4.81676 14.5627 4.81676 14.141V13.6506H11.1764V14.141C11.1764 14.5627 11.5196 14.906 11.9414 14.906H12.3821C12.8039 14.906 13.1471 14.5627 13.1471 14.141V11.7916C13.1471 11.2797 12.9921 10.4848 12.7992 9.99788C13.1562 9.93336 13.4281 9.621 13.4281 9.24571V9.23239C13.4281 8.87119 13.1789 8.60893 12.8356 8.60893ZM4.20408 9.519L4.94164 7.72207C5.06946 7.41066 5.44946 7.15592 5.78599 7.15592H10.207C10.5436 7.15592 10.9236 7.41066 11.0514 7.72207L11.7891 9.519C11.9169 9.83041 11.746 10.0851 11.4095 10.0851H4.58363C4.24711 10.0851 4.07626 9.83035 4.20408 9.519ZM6.05309 12.2169C6.05309 12.3852 5.9154 12.5229 5.7471 12.5229H4.27771C4.10941 12.5229 3.97172 12.3852 3.97172 12.2169V11.5916C3.97172 11.4233 4.10941 11.2856 4.27771 11.2856H5.74716C5.91546 11.2856 6.05315 11.4233 6.05315 11.5916V12.2169H6.05309ZM12.0061 12.2169C12.0061 12.3852 11.8684 12.5229 11.7001 12.5229H10.2306C10.0623 12.5229 9.92464 12.3852 9.92464 12.2169V11.5916C9.92464 11.4233 10.0623 11.2856 10.2306 11.2856H11.7001C11.8684 11.2856 12.0061 11.4233 12.0061 11.5916V12.2169Z" fill="#585858"/>
<path d="M14.5659 0.845703H1.43458C0.643717 0.845703 0.000244141 1.48911 0.000244141 2.28003V14.3577C0.000244141 14.7977 0.357042 15.1545 0.797095 15.1545C1.23715 15.1545 1.59395 14.7977 1.59395 14.3577V5.91724H14.4065V14.3577C14.4065 14.7978 14.7633 15.1546 15.2034 15.1546C15.6434 15.1546 16.0002 14.7978 16.0002 14.3577V2.28003C16.0002 1.48918 15.3568 0.845703 14.5659 0.845703ZM1.59395 4.08532H14.4065V4.36383H1.59395V4.08532ZM1.59395 3.44784V3.22427H14.4065V3.44784H1.59395ZM1.59395 5.27976V5.00131H14.4065V5.27976H1.59395Z" fill="#585858"/>
</g>
<defs>
<clipPath id="clip0_541_2759">
<rect width="16" height="16" fill="white" transform="translate(0.000244141)"/>
</clipPath>
</defs>
</svg>
