<svg width="16" height="16" viewBox="0 0 16 16" fill="none" xmlns="http://www.w3.org/2000/svg">
<g clip-path="url(#clip0_541_2764)">
<path d="M1.66754 6.33301H3.3342C3.23154 6.33301 3.13485 6.28566 3.07154 6.20501C3.0082 6.12435 2.9862 6.01901 3.01088 5.91901L3.21823 5.09035C3.32957 4.64435 3.72888 4.33301 4.18823 4.33301H6.33423C6.88557 4.33301 7.33423 4.78166 7.33423 5.33301V5.99966C7.33423 6.18366 7.18489 6.33301 7.00089 6.33301H9.00089C8.81688 6.33301 8.66754 6.18366 8.66754 5.99966V5.33301C8.66754 4.78166 9.1162 4.33301 9.66754 4.33301H11.8135C12.2729 4.33301 12.6722 4.64435 12.7835 5.09035L12.9909 5.91901C13.0162 6.01835 12.9935 6.12435 12.9302 6.20501C12.8669 6.28566 12.7702 6.33301 12.6676 6.33301H14.3342C14.5182 6.33301 14.6676 6.18366 14.6676 5.99966V3.99966C14.6676 3.08101 13.9196 2.33301 13.0009 2.33301H3.00088C2.08223 2.33301 1.33423 3.08101 1.33423 3.99966V5.99966C1.33423 6.18366 1.48354 6.33301 1.66754 6.33301Z" fill="#585858"/>
<path d="M14.3336 7H1.6669C0.748244 7 0.000244141 7.748 0.000244141 8.66666V13.3333C0.000244141 13.5173 0.149588 13.6667 0.333588 13.6667C0.517588 13.6667 0.666932 13.5173 0.666932 13.3333V12.3333H15.3336V13.3333C15.3336 13.5173 15.4829 13.6667 15.6669 13.6667C15.8509 13.6667 16.0003 13.5173 16.0003 13.3333V8.66666C16.0002 7.748 15.2522 7 14.3336 7ZM15.3336 11.6667H0.6669V11H15.3336V11.6667H15.3336Z" fill="#585858"/>
</g>
<defs>
<clipPath id="clip0_541_2764">
<rect width="16" height="16" fill="white" transform="translate(0.000244141)"/>
</clipPath>
</defs>
</svg>
